<svg xmlns="http://www.w3.org/2000/svg" width="1000" height="760" viewBox="0 0 1000 760"><rect width="1000" height="760" fill="#F4F6FB"/><text x="40" y="50" font-size="28" fill="#4C1D95">星河里 1F · DEMO MAP</text><path d="M120 320H880M120 520H880M520 120V680" stroke="#CBD5E1" stroke-width="70" fill="none" stroke-linecap="round"/><path d="M120 320H880M120 520H880M520 120V680" stroke="#fff" stroke-width="42" fill="none" stroke-linecap="round"/><rect x="165.0" y="180.0" width="110" height="60" rx="12" fill="#fff" stroke="#7C3AED"/><text x="220.0" y="215.0" text-anchor="middle" font-size="13" fill="#312E81">蜀香小院</text><rect x="365.0" y="180.0" width="110" height="60" rx="12" fill="#fff" stroke="#7C3AED"/><text x="420.0" y="215.0" text-anchor="middle" font-size="13" fill="#312E81">星云咖啡</text><rect x="555.0" y="180.0" width="110" height="60" rx="12" fill="#fff" stroke="#7C3AED"/><text x="610.0" y="215.0" text-anchor="middle" font-size="13" fill="#312E81">茉语奶茶</text><rect x="735.0" y="180.0" width="110" height="60" rx="12" fill="#fff" stroke="#7C3AED"/><text x="790.0" y="215.0" text-anchor="middle" font-size="13" fill="#312E81">糖屿甜品</text><rect x="745.0" y="400.0" width="110" height="60" rx="12" fill="#fff" stroke="#7C3AED"/><text x="800.0" y="435.0" text-anchor="middle" font-size="13" fill="#312E81">奇趣儿童乐园</text><rect x="565.0" y="400.0" width="110" height="60" rx="12" fill="#fff" stroke="#7C3AED"/><text x="620.0" y="435.0" text-anchor="middle" font-size="13" fill="#312E81">木棉亲子餐厅</text><rect x="375.0" y="400.0" width="110" height="60" rx="12" fill="#fff" stroke="#7C3AED"/><text x="430.0" y="435.0" text-anchor="middle" font-size="13" fill="#312E81">童梦玩具屋</text><rect x="185.0" y="400.0" width="110" height="60" rx="12" fill="#fff" stroke="#7C3AED"/><text x="240.0" y="435.0" text-anchor="middle" font-size="13" fill="#312E81">拾光礼物研究所</text><rect x="105.0" y="580.0" width="110" height="60" rx="12" fill="#fff" stroke="#7C3AED"/><text x="160.0" y="615.0" text-anchor="middle" font-size="13" fill="#312E81">星河里服务台</text><rect x="285.0" y="580.0" width="110" height="60" rx="12" fill="#fff" stroke="#7C3AED"/><text x="340.0" y="615.0" text-anchor="middle" font-size="13" fill="#312E81">花间礼盒</text><rect x="465.0" y="580.0" width="110" height="60" rx="12" fill="#fff" stroke="#7C3AED"/><text x="520.0" y="615.0" text-anchor="middle" font-size="13" fill="#312E81">南风烘焙</text><circle cx="520" cy="520" r="25" fill="#06B6D4"/><text x="520" y="525" text-anchor="middle" fill="white" font-size="12">电梯</text></svg>